<svg width="27" height="27" viewBox="0 0 27 27" fill="none" xmlns="http://www.w3.org/2000/svg">
<path d="M5.64527 4.06839C9.76561 3.57631 10.2269 6.1815 13.5466 6.34139C16.499 6.02592 17.0011 4.20919 20.2636 4.01174C27.4736 3.57542 30.0487 15.4447 22.1829 15.9901C19.5978 16.1692 17.4026 13.8745 19.7599 11.5447C19.8597 12.2095 19.9112 12.9578 20.7773 12.9115C21.7615 12.8588 22.3367 12.1882 22.281 11.2265C22.2494 10.6233 21.9759 10.0578 21.5213 9.65719C20.1198 8.4314 17.5339 9.0808 16.3669 10.4033C15.5781 11.2945 15.1807 12.463 15.2655 13.6473C15.5008 17.0542 18.8157 18.3564 21.8496 18.1225C19.582 20.6628 18.2504 20.9733 15.071 19.6567L15.4725 20.2655C17.3876 23.276 16.0327 25.1773 13.4842 27C10.3753 24.793 9.68755 22.9007 11.9415 19.6183C8.85484 21.1121 7.29706 20.536 5.127 18.1245C6.67165 18.2526 7.99154 18.1127 9.3618 17.3071C11.6522 15.9246 12.4111 13.2984 11.0389 10.9875C10.0475 9.31767 7.39764 8.35385 5.70553 9.46412C5.20588 9.79207 4.86018 10.3064 4.74672 10.8909C4.55413 11.8351 4.90564 12.7137 5.94284 12.884C7.0235 13.0615 7.07778 12.3877 7.20695 11.5503C7.73569 12.052 8.01273 12.3573 8.17067 13.0884C8.50606 14.6408 7.24295 15.6357 5.83977 15.8995C3.1896 16.3977 0.636014 14.9044 0.131881 12.2009C-0.238593 10.2909 0.178927 8.31302 1.29043 6.71233C2.41 5.1101 3.76297 4.40295 5.64527 4.06839Z" fill="#D12E36"/>
</svg>
