<svg width="60" height="70" viewBox="0 0 60 70" fill="none" xmlns="http://www.w3.org/2000/svg">
<path d="M49.7146 26.4949C48.5438 26.1077 47.2845 26.0764 46.096 26.4049C44.9074 26.7334 43.843 27.407 43.0372 28.3405C42.2315 29.274 41.7207 30.4254 41.5693 31.6492C41.418 32.873 41.633 34.1142 42.1871 35.2158C42.7411 36.3175 43.6094 37.23 44.6822 37.8382C45.7549 38.4463 46.9839 38.7227 48.2137 38.6324C49.4435 38.542 50.6189 38.0891 51.5913 37.3307C52.5636 36.5723 53.2893 35.5427 53.6765 34.3719C54.1956 32.802 54.0699 31.0901 53.3269 29.6129C52.5839 28.1356 51.2845 27.0141 49.7146 26.4949ZM46.918 34.9513C46.4163 34.7853 45.975 34.4743 45.65 34.0576C45.325 33.6409 45.1308 33.1371 45.0921 32.6101C45.0534 32.083 45.1718 31.5563 45.4325 31.0966C45.6931 30.6368 46.0842 30.2647 46.5563 30.0272C47.0285 29.7898 47.5604 29.6976 48.0849 29.7625C48.6094 29.8274 49.1028 30.0463 49.5029 30.3916C49.903 30.7369 50.1917 31.1931 50.3324 31.7025C50.4732 32.2119 50.4598 32.7516 50.2939 33.2533C50.0714 33.9261 49.5907 34.483 48.9576 34.8015C48.3245 35.1199 47.5908 35.1738 46.918 34.9513ZM30.7322 41.3439L38.1486 18.9175C38.7419 17.1233 38.5982 15.1668 37.7491 13.4786C36.8999 11.7903 35.4149 10.5085 33.6207 9.91516C31.8265 9.3218 29.87 9.46551 28.1818 10.3147C26.4935 11.1638 25.2117 12.6488 24.6183 14.443L17.2019 36.8694C14.6572 37.6256 12.4203 39.1742 10.8167 41.2899C9.21305 43.4055 8.32648 45.9777 8.28597 48.6321C8.24547 51.2864 9.05316 53.8845 10.5915 56.048C12.1298 58.2116 14.3185 59.8277 16.8389 60.6612C19.3593 61.4948 22.08 61.5021 24.605 60.6823C27.1299 59.8625 29.3273 58.2582 30.8773 56.103C32.4273 53.9478 33.2491 51.3542 33.223 48.6997C33.1969 46.0451 32.3243 43.4681 30.7322 41.3439ZM31.9695 26.2553L25.2044 24.0181L28.0009 15.5617C28.2976 14.6645 28.9385 13.922 29.7826 13.4975C30.6267 13.0729 31.605 13.001 32.5021 13.2977C33.3992 13.5944 34.1417 14.2353 34.5663 15.0794C34.9908 15.9236 35.0627 16.9018 34.766 17.7989L31.9695 26.2553Z" fill="black"/>
</svg>
