<svg width="640" height="119" viewBox="0 0 640 119" fill="none" xmlns="http://www.w3.org/2000/svg">
<g clip-path="url(#clip0_2110_1528)">
<path d="M628.124 9.46045C622.319 9.46045 617.23 13.8894 617.23 19.6172C617.23 25.2788 622.18 29.7816 628.124 29.7816C634.068 29.7816 639.029 25.2049 639.029 19.6172C639.029 13.8894 634.018 9.46045 628.124 9.46045ZM628.097 11.0975C633.128 11.0975 637.284 14.8732 637.284 19.6055C637.284 24.2444 633.174 28.1601 628.097 28.1601C623.089 28.1601 618.98 24.3533 618.98 19.6055C618.98 14.8032 623.144 11.0975 628.097 11.0975ZM624.022 25.306H626.41V20.7448H628.526C629.397 20.7448 629.614 21.0714 629.807 21.7169C629.807 21.8686 630.194 24.7927 630.276 25.306H632.849C632.497 24.7927 632.35 23.2179 632.234 22.3041C632.002 20.8615 631.874 19.8466 630.194 19.7299C631.069 19.4655 632.516 19.0183 632.516 16.938C632.516 13.9166 629.703 13.9166 628.259 13.9166H624.034L624.022 25.306ZM626.344 15.752H628.317C628.948 15.752 630.094 15.752 630.094 17.3074C630.094 17.9023 629.819 18.9133 628.259 18.9133H626.325L626.344 15.752Z" fill="black"/>
<path d="M377.825 94.2449C358.263 94.2449 347.481 82.4628 348.875 62.2427C350.337 41.0505 367.334 29.5523 386.478 29.5523C392.172 29.5022 397.808 30.6963 402.998 33.0519L402.352 42.4504C397.932 39.1371 392.579 37.3207 387.066 37.2632C374.206 37.2632 366.498 47.7854 365.55 61.5467C364.59 75.4402 370.859 85.8341 384.558 85.8341C390.134 85.8341 395.096 84.9942 400.653 83.2988L400.215 89.6215C393.163 92.7428 385.53 94.3189 377.825 94.2449Z" fill="black"/>
<path d="M585.161 95.6022C565.607 95.6022 554.826 83.8007 556.215 63.5884C557.67 42.3923 574.678 30.8901 593.814 30.8901C599.508 30.8407 605.145 32.0348 610.335 34.3898L609.681 43.796C605.27 40.4714 599.916 38.6511 594.403 38.601C581.547 38.601 573.835 49.1271 572.89 62.8845C571.931 76.782 578.207 87.1836 591.887 87.1836C597.475 87.1836 602.429 86.3243 607.989 84.6445L607.552 90.9594C600.503 94.091 592.869 95.6739 585.161 95.6022Z" fill="black"/>
<path d="M45.4121 93.9923C19.8288 93.9923 -2.02402 79.6944 0.13533 48.1082C2.03541 20.7917 23.8611 0 57.4898 0C63.9485 0 71.1966 1.16655 77.814 3.18078C77.756 4.04403 77.1523 12.8475 77.04 14.434C71.3708 11.1288 63.8827 9.2468 56.8435 9.2468C29.6929 9.2468 19.3644 31.9166 18.3466 46.6345C16.5394 72.909 31.3918 84.6094 47.6295 84.6094C58.2599 84.6094 68.6232 82.2957 76.5292 78.0962C75.7746 89.0811 75.7282 89.7966 75.7282 89.7966C67.203 92.4058 57.7684 93.9923 45.4121 93.9923Z" fill="black"/>
<path d="M175.264 93.9219C167.857 93.9219 162.439 91.4022 159.158 86.3472L156.952 118.342H141.724L146.921 43.1228C147.281 37.9239 147.552 33.9771 143.725 30.6214H162.319L162.439 38.8999C166.804 32.309 174.018 29.0815 182.81 29.0815C199.717 29.0815 207.05 44.2272 205.998 59.5478C204.686 78.3485 194.814 93.9219 175.264 93.9219ZM176.456 38.0562C168.906 38.0562 161.994 45.0826 161.182 56.8842L160.466 67.1109C159.599 79.7484 164.432 86.6271 173.236 86.6271C186.223 86.6271 188.537 71.4621 189.222 61.5037C189.903 51.6697 189.025 38.0562 176.456 38.0562Z" fill="black"/>
<path d="M275.709 61.9786H231.844C230.888 75.8721 239.855 85.6983 253.825 85.6983C259.417 85.6983 265.461 85.1423 271.022 83.4508L270.589 89.7773C263.097 93.0048 255.051 94.1247 247.091 94.1247C227.123 94.1247 213.966 82.3387 215.386 61.6909C216.69 42.7579 231.577 29.4165 250.295 29.4165C268.445 29.4165 277.229 42.0463 276.026 59.4355C275.972 60.3027 275.786 61.1348 275.709 61.9786ZM249.084 36.8513C244.053 36.8513 239.979 39.371 237.088 43.0145C234.336 46.5336 232.866 51.5925 232.444 55.376H260.667C261.243 46.9613 259.424 36.8513 249.084 36.8513Z" fill="black"/>
<path d="M135.842 28.9458H82.6318L81.9546 38.7137H100.727L96.9462 93.6501H112.398L116.183 38.7137H135.172L135.842 28.9458Z" fill="black"/>
<path d="M326.639 38.8573L322.912 92.9694H336.87L341.189 30.291H287.925L283.606 92.9694H296.977H298.192L301.915 38.9001L326.639 38.8573Z" fill="black"/>
<path d="M532.246 38.8574L528.515 92.9694H542.474L546.792 30.2949H493.536L490.282 77.4855C490.166 79.0053 489.56 80.4457 488.556 81.5878C486.388 83.3843 482.526 85.0875 482.526 85.0875L481.752 94.7542C481.752 94.7542 490.885 95.4697 496.922 93.055C502.959 90.6402 504.724 79.2742 504.724 79.2742L507.51 38.9079L532.246 38.8574Z" fill="black"/>
<path d="M424.777 95.2912L457.57 48.9911L454.389 95.2912H461.115L461.126 95.2251H467.295L471.765 30.3186H465.596V30.2681H459.215L425.83 77.4081L429.077 30.2681H422.262L422.258 30.3108H415.765L411.295 95.2912H424.777Z" fill="black"/>
</g>
<defs>
<clipPath id="clip0_2110_1528">
<rect width="639.025" height="118.338" fill="white"/>
</clipPath>
</defs>
</svg>
