<svg width="634" height="107" viewBox="0 0 634 107" fill="none" xmlns="http://www.w3.org/2000/svg">
<path d="M622.003 4.88C627.943 4.88 632.323 9.38 632.323 15.5C632.323 21.62 627.943 26.12 622.003 26.12C616.063 26.12 611.683 21.62 611.683 15.5C611.683 9.38 616.063 4.88 622.003 4.88ZM622.003 6.38C616.933 6.38 613.213 10.28 613.213 15.5C613.213 20.72 616.933 24.62 622.003 24.62C627.073 24.62 630.793 20.72 630.793 15.5C630.793 10.28 627.073 6.38 622.003 6.38ZM618.883 9.08H622.153C624.433 9.08 625.423 10.25 625.423 12.44V12.74C625.423 14.3 624.913 15.32 623.683 15.77C624.943 16.19 625.423 17.24 625.423 18.77V20.15C625.423 20.81 625.453 21.41 625.753 21.92H624.043C623.863 21.5 623.803 21.14 623.803 20.15V18.77C623.803 17.09 622.993 16.61 621.613 16.61H620.503V21.92H618.883V9.08ZM620.503 15.08H621.853C623.083 15.08 623.773 14.6 623.773 13.1V12.62C623.773 11.3 623.323 10.58 622.063 10.58H620.503V15.08Z" fill="black"/>
<path d="M402.564 90.7919C402.564 93.1773 402.564 95.1453 402.564 97.1431C402.564 101.198 400.827 102.808 396.873 102.838H388.667C384.893 102.838 383.246 101.228 383.066 97.471C383.066 95.354 383.066 93.2369 383.066 91.0901C378.079 90.4409 373.178 89.251 368.45 87.5417C362.409 85.1835 357.069 81.3361 352.93 76.3604C348.792 71.3848 345.99 65.4441 344.789 59.0956C343.419 52.8551 343.694 46.3677 345.589 40.2646C347.484 34.1615 350.933 28.6507 355.602 24.2684C362.182 17.6586 370.931 13.6262 380.251 12.9079C381.898 12.729 383.246 12.729 383.965 10.8206C384.332 10.1181 384.901 9.54105 385.601 9.16374C386.3 8.78643 387.097 8.62616 387.888 8.70357C391.063 8.70357 394.238 8.70357 397.382 8.70357C398.316 8.61991 399.253 8.83128 400.06 9.30765C400.866 9.78402 401.501 10.5012 401.875 11.3573C402.384 12.6395 403.373 12.7886 404.63 12.878C410.447 13.3171 416.104 14.9841 421.223 17.7682C427.008 20.9135 431.925 25.4299 435.539 30.9178C440.522 38.4457 442.646 47.4953 441.529 56.4418C440.755 63.3694 438 69.9303 433.593 75.3463C430.545 79.3723 426.731 82.7611 422.368 85.3192C418.005 87.8773 413.179 89.5546 408.165 90.2552C406.31 90.544 404.44 90.7232 402.564 90.7919ZM402.564 30.8283C401.875 33.8101 401.755 67.8024 402.414 72.5733C407.974 72.593 413.315 70.4129 417.261 66.5125C421.207 62.6122 423.434 57.3111 423.454 51.7753C423.474 46.2396 421.284 40.9228 417.367 36.9945C413.449 33.0661 408.124 30.8481 402.564 30.8283ZM383.515 30.8283C378.011 30.8283 372.731 33.0054 368.839 36.8806C364.946 40.7558 362.76 46.0117 362.76 51.4921C362.76 56.9724 364.946 62.2283 368.839 66.1035C372.731 69.9787 378.011 72.1558 383.515 72.1558V30.8283Z" fill="black"/>
<path d="M235.89 56.7098C235.57 49.6309 236.886 42.5733 239.736 36.0804C242.587 29.5875 246.896 23.8326 252.333 19.2587C261.33 11.4942 272.75 7.07041 284.652 6.73884C296.555 6.40727 308.205 10.1884 317.625 17.4398C327.362 24.6498 333.911 35.3385 335.894 47.2576C337.172 54.0948 336.922 61.1281 335.162 67.8582C333.402 74.5884 330.175 80.8503 325.711 86.1995C319.733 93.5336 311.815 99.059 302.851 102.152C293.887 105.246 284.234 105.784 274.979 103.707C265.724 101.63 257.236 97.0197 250.472 90.3964C243.708 83.773 238.938 75.4001 236.699 66.2217C236.135 63.0827 235.864 59.8985 235.89 56.7098ZM254.819 55.8749C254.406 60.1412 255.293 64.4322 257.364 68.1897C260.129 74.5793 264.984 79.8491 271.14 83.141C277.297 86.4329 284.391 87.553 291.268 86.3188C295.828 85.6163 300.174 83.912 303.99 81.3297C307.806 78.7475 310.997 75.352 313.331 71.3895C315.665 67.427 317.084 62.9969 317.485 58.4206C317.885 53.8443 317.258 49.2366 315.648 44.9317C312.882 38.3022 307.977 32.7781 301.708 29.231C295.439 25.6838 288.162 24.3154 281.025 25.3415C273.812 26.6868 267.278 30.4496 262.51 36.0044C257.743 41.5592 255.028 48.5714 254.819 55.8749Z" fill="black"/>
<path d="M136.364 60.8846C134.507 60.169 133.369 61.4213 132.291 62.1071C122.797 67.5638 113.272 66.8183 103.658 62.4948C96.1971 59.1328 90.0816 53.3802 86.287 46.1546C84.333 42.5435 83.3043 38.5081 83.292 34.4064C83.292 27.8167 83.292 21.227 83.292 14.6671C83.292 10.1944 84.9992 8.7035 89.5816 8.55441C92.0076 8.55441 94.4635 8.55441 96.9195 8.55441C100.843 8.55441 102.67 9.92606 102.91 13.7129C103.064 18.2279 102.954 22.748 102.58 27.2502C101.861 35.9271 105.575 45.2899 116.357 47.0491C120.712 47.8743 125.217 46.9563 128.896 44.4943C132.574 42.0324 135.129 38.2253 136.005 33.8995C136.448 31.8214 136.668 29.7025 136.664 27.5782C136.664 23.016 136.664 18.4241 136.664 13.862C136.664 10.2838 138.221 8.61406 141.755 8.43516C144.631 8.31589 147.506 8.31589 150.381 8.43516C151.095 8.36719 151.816 8.45984 152.49 8.70628C153.163 8.95272 153.773 9.34665 154.273 9.85898C154.773 10.3713 155.152 10.9889 155.38 11.6663C155.608 12.3437 155.681 13.0635 155.592 13.7725C155.592 33.9591 155.592 54.116 155.592 74.3026C155.494 78.2507 154.468 82.1211 152.597 85.6035C148.875 93.2272 142.308 99.1014 134.298 101.973C129.624 103.58 124.762 104.582 119.832 104.955C117.121 105.174 114.393 104.912 111.775 104.18C106.322 103.029 101.198 100.675 96.7815 97.289C92.3649 93.9035 88.7683 89.5738 86.2571 84.6195C85.0123 81.9305 84.0778 79.1097 83.4717 76.211C83.2649 75.4549 83.2425 74.6606 83.4063 73.8942C83.5701 73.1278 83.9154 72.4114 84.4135 71.8047C84.9116 71.198 85.548 70.7185 86.2698 70.4061C86.9916 70.0937 87.7779 69.9575 88.5633 70.0088H98.5068C101.502 70.0088 102.161 70.635 103.119 73.8553C103.775 76.7852 105.247 79.4718 107.366 81.6075C109.485 83.7433 112.165 85.2418 115.099 85.9315C117.34 86.5257 119.68 86.655 121.973 86.3113C124.267 85.9676 126.465 85.1583 128.431 83.9337C130.397 82.709 132.089 81.095 133.402 79.192C134.715 77.289 135.622 75.1376 136.065 72.8713C136.67 68.9042 136.771 64.8768 136.364 60.8846Z" fill="black"/>
<path d="M552.197 46.8693H585.981V42.4861C585.981 33.0239 585.981 23.5816 585.981 14.1592C585.861 13.4193 585.914 12.6619 586.137 11.9459C586.359 11.23 586.745 10.5751 587.264 10.0323C587.784 9.48951 588.422 9.07357 589.129 8.81703C589.836 8.56049 590.594 8.47029 591.342 8.55346C594.067 8.55346 596.823 8.55346 599.548 8.55346C603.741 8.55346 604.909 9.74616 604.909 13.861C604.909 31.036 604.909 48.2011 604.909 65.3563C604.909 76.0907 604.909 86.8251 604.909 97.5594C604.909 101.943 604.011 102.807 599.608 102.837C596.613 102.837 593.618 102.837 590.623 102.837C587.628 102.837 586.28 101.525 586.071 98.4839C586.026 97.6197 586.026 96.7538 586.071 95.8897V64.3724H552.616C551.807 65.2371 552.227 66.4596 552.227 67.533C552.227 77.1344 552.227 86.7058 552.227 96.3072C552.227 97.2911 552.227 98.3049 552.227 99.2889C552.203 100.225 551.815 101.116 551.145 101.772C550.474 102.429 549.573 102.8 548.632 102.807C544.739 102.807 540.845 102.807 536.952 102.807C536.449 102.827 535.947 102.739 535.481 102.549C535.015 102.36 534.595 102.073 534.249 101.709C533.903 101.345 533.639 100.911 533.475 100.437C533.311 99.9633 533.251 99.46 533.298 98.9609C533.298 94.9653 533.298 90.9399 533.298 87.0338V15.3221C533.298 9.95491 534.646 8.64292 540.157 8.61311C542.313 8.61311 544.469 8.61311 546.626 8.61311C550.639 8.61311 552.257 10.4022 552.257 14.3978C552.257 23.9991 552.257 33.5706 552.257 43.1719L552.197 46.8693Z" fill="black"/>
<path d="M52.7721 64.3428H19.0179V97.1423C19.0179 101.704 17.76 102.897 13.0278 102.927C10.0328 102.927 7.03771 102.927 4.04267 102.927C3.49433 102.97 2.9433 102.891 2.42877 102.698C1.91424 102.504 1.44885 102.2 1.0657 101.808C0.682545 101.415 0.391042 100.943 0.211916 100.425C0.0327897 99.9072 -0.029547 99.3566 0.0293184 98.8121C0.0293184 97.9474 0.0293184 97.0827 0.0293184 96.2478V15.6504C0.0293184 14.6366 0.0293184 13.6228 0.0293184 12.6686C0.0371578 11.5955 0.468805 10.5686 1.231 9.80978C1.99319 9.05096 3.02471 8.62121 4.10258 8.6134C7.54454 8.43447 10.9935 8.43447 14.4355 8.6134C15.0803 8.62608 15.7154 8.77239 16.3003 9.043C16.8851 9.3136 17.407 9.70257 17.8325 10.1851C18.258 10.6676 18.5778 11.2331 18.7716 11.8456C18.9654 12.458 19.0289 13.1039 18.958 13.7421C18.958 23.3136 18.958 32.9149 18.958 42.4864V46.8994H52.3827C53.1614 45.8856 52.7721 44.6929 52.7721 43.5896C52.7721 33.869 52.7721 24.1484 52.7721 14.4279C52.7721 10.4025 54.3894 8.70284 58.3429 8.4643C61.0983 8.4643 63.8238 8.4643 66.5493 8.4643C67.2639 8.3895 67.9863 8.4777 68.6616 8.72223C69.3369 8.96676 69.9474 9.3612 70.4468 9.87561C70.9461 10.39 71.3213 11.0109 71.5438 11.6912C71.7662 12.3714 71.8301 13.0932 71.7307 13.8017V97.9176C71.7307 101.645 70.6225 102.688 66.8488 102.748C63.674 102.748 60.4993 102.748 57.3245 102.748C53.9401 102.748 52.7721 101.526 52.7721 98.0368C52.7721 88.2864 52.7721 78.5659 52.7721 68.8453V64.3428Z" fill="black"/>
<path d="M470.971 46.6914C472.429 47.1116 473.957 47.2333 475.464 47.0492H506.552C511.404 47.0492 512.542 48.1822 512.542 53.0127C512.542 54.5931 512.542 56.1734 512.542 57.7239C512.542 62.8824 511.404 64.0453 506.343 64.0453H470.043C470.936 67.0946 472.366 69.9618 474.266 72.5135C479.053 79.3221 486.276 84.0485 494.452 85.7228C501.878 87.3242 509.629 86.4004 516.466 83.0989C517.221 82.7184 518.014 82.4185 518.832 82.2043C519.179 82.0893 519.548 82.0591 519.909 82.1162C520.27 82.1734 520.612 82.3162 520.905 82.5326C521.199 82.749 521.436 83.0328 521.597 83.3597C521.757 83.6866 521.836 84.0471 521.827 84.4109C521.827 89.1519 521.827 93.8631 521.827 98.5743C521.827 100.572 520.299 101.556 518.652 102.182C515.917 103.356 512.999 104.052 510.026 104.24C505.673 104.858 501.267 105.027 496.878 104.747C491.361 104.209 485.948 102.904 480.795 100.87C473.488 98.1481 466.937 93.7312 461.687 87.9857C456.437 82.2401 452.638 75.3313 450.605 67.8321C447.658 57.4771 448.529 46.4141 453.061 36.6428C457.361 27.4102 464.353 19.6801 473.127 14.4584C483.584 8.20499 495.798 5.50499 507.93 6.76539C510.98 7.04352 513.992 7.64321 516.915 8.55443C518.472 8.80408 519.867 9.65479 520.798 10.9219C521.728 12.1891 522.12 13.7705 521.887 15.3231C521.557 18.8714 521.887 22.4794 521.887 26.0575C521.887 28.6814 520.509 29.576 517.963 28.7411C515.927 28.0851 514.04 27.1011 511.973 26.5047C503.74 24.0361 494.879 24.7057 487.114 28.3833C480.196 31.4545 472.289 39.1773 470.971 46.6914Z" fill="black"/>
<path d="M185.902 64.1347V96.5168C185.902 97.3816 185.902 98.2462 185.902 99.0811C185.92 99.5829 185.832 100.083 185.644 100.549C185.456 101.015 185.173 101.437 184.812 101.788C184.451 102.139 184.021 102.411 183.549 102.586C183.076 102.762 182.572 102.838 182.068 102.808C178.474 102.808 174.88 102.808 171.286 102.808C168.471 102.808 167.213 101.467 166.943 98.6339C166.943 97.9182 166.943 97.2026 166.943 96.487V13.6831C166.871 13.006 166.949 12.3212 167.173 11.6778C167.396 11.0343 167.76 10.448 168.238 9.9608C168.716 9.47363 169.296 9.09763 169.937 8.85965C170.578 8.62168 171.264 8.52765 171.945 8.58425C180.271 8.58425 188.658 8.25626 196.984 8.58425C202.538 8.65935 208.03 9.75096 213.187 11.8046C216.809 13.1436 220.023 15.3889 222.52 18.324C225.017 21.2591 226.713 24.7851 227.443 28.5621C228.679 33.9856 228.628 39.6212 227.294 45.0216C226.123 50.3587 222.897 55.0262 218.309 58.0221C214.005 60.8013 209.155 62.6314 204.082 63.3893C199.541 63.9291 194.968 64.1583 190.395 64.0751L185.902 64.1347ZM185.902 48.1822C188.377 48.4757 190.868 48.6151 193.36 48.5997C195.788 48.6004 198.21 48.3304 200.578 47.7946C202.82 47.5862 204.942 46.6917 206.653 45.2341C208.363 43.7766 209.579 41.8274 210.132 39.6544C210.627 37.4653 210.627 35.1941 210.132 33.005C209.877 31.2489 209.102 29.6082 207.908 28.2914C206.713 26.9747 205.152 26.0413 203.423 25.6102C197.691 24.3769 191.777 24.2353 185.992 25.1927L185.902 48.1822Z" fill="black"/>
<g clip-path="url(#clip0_2110_2313)">
<rect x="236" y="5.30518" width="101" height="101.39" rx="50.5" fill="white"/>
<circle cx="286.5" cy="56.0002" r="50.695" fill="#EC0928"/>
<circle cx="286.501" cy="56" r="39.1211" fill="#F59C00"/>
<circle cx="286.501" cy="56.0001" r="27.2755" fill="#FFED00"/>
<circle cx="286.499" cy="56.0002" r="15.4333" fill="white"/>
</g>
<defs>
<clipPath id="clip0_2110_2313">
<rect x="236" y="5.30518" width="101" height="101.39" rx="50.5" fill="white"/>
</clipPath>
</defs>
</svg>
