<svg width="672" height="203" viewBox="0 0 672 203" fill="none" xmlns="http://www.w3.org/2000/svg">
<path d="M622.003 4.88C627.943 4.88 632.323 9.38 632.323 15.5C632.323 21.62 627.943 26.12 622.003 26.12C616.063 26.12 611.683 21.62 611.683 15.5C611.683 9.38 616.063 4.88 622.003 4.88ZM622.003 6.38C616.933 6.38 613.213 10.28 613.213 15.5C613.213 20.72 616.933 24.62 622.003 24.62C627.073 24.62 630.793 20.72 630.793 15.5C630.793 10.28 627.073 6.38 622.003 6.38ZM618.883 9.08H622.153C624.433 9.08 625.423 10.25 625.423 12.44V12.74C625.423 14.3 624.913 15.32 623.683 15.77C624.943 16.19 625.423 17.24 625.423 18.77V20.15C625.423 20.81 625.453 21.41 625.753 21.92H624.043C623.863 21.5 623.803 21.14 623.803 20.15V18.77C623.803 17.09 622.993 16.61 621.613 16.61H620.503V21.92H618.883V9.08ZM620.503 15.08H621.853C623.083 15.08 623.773 14.6 623.773 13.1V12.62C623.773 11.3 623.323 10.58 622.063 10.58H620.503V15.08Z" fill="black"/>
<g clip-path="url(#clip0_2110_3006)">
<path d="M402.564 90.7919C402.564 93.1773 402.564 95.1453 402.564 97.1431C402.564 101.198 400.827 102.808 396.873 102.838H388.667C384.893 102.838 383.246 101.228 383.066 97.471C383.066 95.354 383.066 93.2369 383.066 91.0901C378.079 90.4409 373.178 89.251 368.45 87.5417C362.409 85.1835 357.069 81.3361 352.93 76.3604C348.792 71.3848 345.99 65.4441 344.789 59.0956C343.419 52.8551 343.694 46.3677 345.589 40.2646C347.484 34.1615 350.933 28.6507 355.602 24.2684C362.182 17.6586 370.931 13.6262 380.251 12.9079C381.898 12.729 383.246 12.729 383.965 10.8206C384.332 10.1181 384.901 9.54105 385.601 9.16374C386.3 8.78643 387.097 8.62616 387.888 8.70357C391.063 8.70357 394.238 8.70357 397.382 8.70357C398.316 8.61991 399.253 8.83128 400.06 9.30765C400.866 9.78402 401.501 10.5012 401.875 11.3573C402.384 12.6395 403.373 12.7886 404.63 12.878C410.447 13.3171 416.104 14.9841 421.223 17.7682C427.008 20.9135 431.925 25.4299 435.539 30.9178C440.522 38.4457 442.646 47.4953 441.529 56.4418C440.755 63.3694 438 69.9303 433.593 75.3463C430.545 79.3723 426.731 82.7611 422.368 85.3192C418.005 87.8773 413.179 89.5546 408.165 90.2552C406.31 90.544 404.44 90.7232 402.564 90.7919ZM402.564 30.8283C401.875 33.8101 401.755 67.8024 402.414 72.5733C407.974 72.593 413.315 70.4129 417.261 66.5125C421.207 62.6122 423.434 57.3111 423.454 51.7753C423.474 46.2396 421.284 40.9228 417.367 36.9945C413.449 33.0661 408.124 30.8481 402.564 30.8283ZM383.515 30.8283C378.011 30.8283 372.731 33.0054 368.839 36.8806C364.946 40.7558 362.76 46.0117 362.76 51.4921C362.76 56.9724 364.946 62.2283 368.839 66.1035C372.731 69.9787 378.011 72.1558 383.515 72.1558V30.8283Z" fill="black"/>
<path d="M235.891 56.7108C235.571 49.6319 236.887 42.5743 239.737 36.0814C242.588 29.5885 246.897 23.8336 252.334 19.2597C261.331 11.4952 272.751 7.07139 284.653 6.73982C296.556 6.40825 308.206 10.1894 317.626 17.4408C327.363 24.6508 333.912 35.3395 335.895 47.2585C337.173 54.0958 336.923 61.1291 335.163 67.8592C333.403 74.5894 330.176 80.8513 325.712 86.2005C319.734 93.5346 311.816 99.0599 302.852 102.153C293.888 105.247 284.235 105.785 274.98 103.708C265.725 101.631 257.237 97.0207 250.473 90.3973C243.709 83.774 238.939 75.401 236.7 66.2226C236.136 63.0837 235.865 59.8994 235.891 56.7108ZM254.82 55.8759C254.407 60.1421 255.294 64.4332 257.365 68.1906C260.13 74.5803 264.985 79.8501 271.141 83.142C277.298 86.4339 284.392 87.554 291.269 86.3198C295.829 85.6172 300.175 83.913 303.991 81.3307C307.807 78.7485 310.998 75.3529 313.332 71.3904C315.666 67.4279 317.085 62.9979 317.486 58.4216C317.886 53.8453 317.259 49.2376 315.649 44.9327C312.883 38.3032 307.978 32.7791 301.709 29.2319C295.44 25.6848 288.163 24.3163 281.026 25.3425C273.813 26.6878 267.279 30.4506 262.511 36.0054C257.744 41.5602 255.029 48.5723 254.82 55.8759Z" fill="black"/>
<path d="M136.365 60.8836C134.508 60.168 133.37 61.4203 132.292 62.1062C122.798 67.5628 113.273 66.8174 103.659 62.4938C96.1981 59.1318 90.0825 53.3792 86.288 46.1536C84.334 42.5425 83.3052 38.5072 83.293 34.4054C83.293 27.8157 83.293 21.226 83.293 14.6661C83.293 10.1934 85.0002 8.70252 89.5826 8.55343C92.0086 8.55343 94.4645 8.55343 96.9204 8.55343C100.844 8.55343 102.671 9.92508 102.911 13.7119C103.065 18.2269 102.955 22.747 102.581 27.2492C101.862 35.9261 105.576 45.2889 116.358 47.0482C120.713 47.8733 125.218 46.9553 128.897 44.4934C132.575 42.0314 135.13 38.2243 136.006 33.8985C136.449 31.8204 136.669 29.7015 136.665 27.5772C136.665 23.0151 136.665 18.4231 136.665 13.861C136.665 10.2829 138.222 8.61309 141.756 8.43418C144.632 8.31491 147.507 8.31491 150.382 8.43418C151.096 8.36621 151.817 8.45886 152.491 8.7053C153.164 8.95174 153.774 9.34567 154.274 9.858C154.774 10.3703 155.153 10.988 155.381 11.6653C155.609 12.3427 155.682 13.0625 155.593 13.7715C155.593 33.9582 155.593 54.115 155.593 74.3016C155.495 78.2497 154.469 82.1201 152.598 85.6026C148.876 93.2262 142.309 99.1004 134.299 101.972C129.625 103.579 124.763 104.581 119.833 104.954C117.122 105.173 114.394 104.911 111.776 104.179C106.323 103.028 101.199 100.674 96.7825 97.2881C92.3659 93.9026 88.7693 89.5728 86.2581 84.6185C85.0132 81.9295 84.0788 79.1087 83.4727 76.21C83.2659 75.4539 83.2435 74.6596 83.4073 73.8932C83.5711 73.1268 83.9164 72.4105 84.4145 71.8037C84.9125 71.197 85.549 70.7175 86.2708 70.4051C86.9926 70.0928 87.7789 69.9566 88.5643 70.0078H98.5078C101.503 70.0078 102.162 70.634 103.12 73.8544C103.776 76.7842 105.248 79.4708 107.367 81.6065C109.486 83.7423 112.166 85.2408 115.1 85.9305C117.341 86.5247 119.681 86.654 121.974 86.3103C124.268 85.9667 126.466 85.1574 128.432 83.9327C130.398 82.708 132.09 81.094 133.403 79.191C134.716 77.288 135.623 75.1366 136.066 72.8703C136.671 68.9032 136.772 64.8758 136.365 60.8836Z" fill="black"/>
<path d="M552.196 46.8703H585.98V42.4871C585.98 33.0249 585.98 23.5826 585.98 14.1602C585.86 13.4203 585.913 12.6628 586.136 11.9469C586.358 11.231 586.744 10.576 587.263 10.0333C587.783 9.49048 588.421 9.07454 589.128 8.81801C589.835 8.56147 590.593 8.47127 591.341 8.55443C594.066 8.55443 596.822 8.55443 599.547 8.55443C603.74 8.55443 604.908 9.74714 604.908 13.862C604.908 31.037 604.908 48.2021 604.908 65.3573C604.908 76.0917 604.908 86.826 604.908 97.5604C604.908 101.944 604.01 102.808 599.607 102.838C596.612 102.838 593.617 102.838 590.622 102.838C587.627 102.838 586.279 101.526 586.07 98.4849C586.025 97.6207 586.025 96.7548 586.07 95.8906V64.3733H552.615C551.806 65.238 552.226 66.4606 552.226 67.534C552.226 77.1353 552.226 86.7068 552.226 96.3081C552.226 97.2921 552.226 98.3059 552.226 99.2899C552.202 100.226 551.814 101.117 551.144 101.773C550.473 102.43 549.572 102.801 548.632 102.808C544.738 102.808 540.844 102.808 536.951 102.808C536.448 102.828 535.946 102.74 535.48 102.55C535.014 102.361 534.594 102.074 534.248 101.71C533.902 101.346 533.638 100.912 533.474 100.438C533.31 99.9643 533.25 99.4609 533.297 98.9619C533.297 94.9663 533.297 90.9409 533.297 87.0348V15.3231C533.297 9.95588 534.645 8.6439 540.156 8.61408C542.312 8.61408 544.468 8.61408 546.625 8.61408C550.638 8.61408 552.256 10.4032 552.256 14.3987C552.256 24.0001 552.256 33.5715 552.256 43.1729L552.196 46.8703Z" fill="black"/>
<path d="M52.7721 64.3428H19.0179V97.1423C19.0179 101.704 17.76 102.897 13.0278 102.927C10.0328 102.927 7.03771 102.927 4.04267 102.927C3.49433 102.97 2.9433 102.891 2.42877 102.698C1.91424 102.504 1.44885 102.2 1.0657 101.808C0.682545 101.415 0.391042 100.943 0.211916 100.425C0.0327897 99.9072 -0.029547 99.3566 0.0293184 98.8121C0.0293184 97.9474 0.0293184 97.0827 0.0293184 96.2478V15.6504C0.0293184 14.6366 0.0293184 13.6228 0.0293184 12.6686C0.0371578 11.5955 0.468805 10.5686 1.231 9.80978C1.99319 9.05096 3.02471 8.62121 4.10258 8.6134C7.54454 8.43447 10.9935 8.43447 14.4355 8.6134C15.0803 8.62608 15.7154 8.77239 16.3003 9.043C16.8851 9.3136 17.407 9.70257 17.8325 10.1851C18.258 10.6676 18.5778 11.2331 18.7716 11.8456C18.9654 12.458 19.0289 13.1039 18.958 13.7421C18.958 23.3136 18.958 32.9149 18.958 42.4864V46.8994H52.3827C53.1614 45.8856 52.7721 44.6929 52.7721 43.5896C52.7721 33.869 52.7721 24.1484 52.7721 14.4279C52.7721 10.4025 54.3894 8.70284 58.3429 8.4643C61.0983 8.4643 63.8238 8.4643 66.5493 8.4643C67.2639 8.3895 67.9863 8.4777 68.6616 8.72223C69.3369 8.96676 69.9474 9.3612 70.4468 9.87561C70.9461 10.39 71.3213 11.0109 71.5438 11.6912C71.7662 12.3714 71.8301 13.0932 71.7307 13.8017V97.9176C71.7307 101.645 70.6225 102.688 66.8488 102.748C63.674 102.748 60.4993 102.748 57.3245 102.748C53.9401 102.748 52.7721 101.526 52.7721 98.0368C52.7721 88.2864 52.7721 78.5659 52.7721 68.8453V64.3428Z" fill="black"/>
<path d="M470.972 46.6904C472.43 47.1106 473.958 47.2324 475.465 47.0482H506.553C511.405 47.0482 512.543 48.1813 512.543 53.0117C512.543 54.5921 512.543 56.1724 512.543 57.723C512.543 62.8814 511.405 64.0443 506.344 64.0443H470.044C470.937 67.0936 472.367 69.9608 474.267 72.5125C479.054 79.3211 486.277 84.0475 494.453 85.7218C501.879 87.3233 509.63 86.3994 516.467 83.0979C517.222 82.7174 518.015 82.4175 518.833 82.2033C519.18 82.0883 519.549 82.0581 519.91 82.1152C520.271 82.1724 520.613 82.3152 520.906 82.5316C521.2 82.748 521.437 83.0318 521.598 83.3587C521.758 83.6856 521.837 84.0462 521.828 84.4099C521.828 89.1509 521.828 93.8621 521.828 98.5733C521.828 100.571 520.3 101.555 518.653 102.181C515.918 103.355 513 104.051 510.027 104.239C505.674 104.857 501.268 105.027 496.879 104.746C491.362 104.208 485.949 102.903 480.796 100.869C473.489 98.1472 466.938 93.7303 461.688 87.9847C456.438 82.2391 452.639 75.3303 450.606 67.8311C447.659 57.4761 448.53 46.4131 453.062 36.6418C457.362 27.4092 464.354 19.6791 473.128 14.4574C483.585 8.20402 495.799 5.50402 507.931 6.76442C510.981 7.04255 513.993 7.64223 516.916 8.55346C518.473 8.8031 519.868 9.65381 520.799 10.921C521.729 12.1881 522.121 13.7695 521.888 15.3221C521.558 18.8704 521.888 22.4784 521.888 26.0565C521.888 28.6805 520.51 29.575 517.964 28.7401C515.928 28.0841 514.041 27.1001 511.974 26.5038C503.741 24.0351 494.88 24.7047 487.115 28.3823C480.197 31.4535 472.29 39.1763 470.972 46.6904Z" fill="black"/>
<path d="M185.903 64.1347V96.5168C185.903 97.3816 185.903 98.2462 185.903 99.0811C185.921 99.5829 185.833 100.083 185.645 100.549C185.457 101.015 185.174 101.437 184.813 101.788C184.452 102.139 184.022 102.411 183.55 102.586C183.077 102.762 182.573 102.838 182.069 102.808C178.475 102.808 174.881 102.808 171.287 102.808C168.472 102.808 167.214 101.467 166.944 98.6339C166.944 97.9182 166.944 97.2026 166.944 96.487V13.6831C166.871 13.006 166.95 12.3212 167.174 11.6778C167.397 11.0343 167.761 10.448 168.239 9.9608C168.717 9.47363 169.297 9.09763 169.938 8.85965C170.579 8.62168 171.265 8.52765 171.946 8.58425C180.272 8.58425 188.659 8.25626 196.985 8.58425C202.539 8.65935 208.031 9.75096 213.188 11.8046C216.81 13.1436 220.024 15.3889 222.521 18.324C225.018 21.2591 226.714 24.7851 227.444 28.5621C228.68 33.9856 228.629 39.6212 227.295 45.0216C226.124 50.3587 222.898 55.0262 218.31 58.0221C214.006 60.8013 209.156 62.6314 204.083 63.3893C199.542 63.9291 194.969 64.1583 190.396 64.0751L185.903 64.1347ZM185.903 48.1822C188.378 48.4757 190.869 48.6151 193.361 48.5997C195.789 48.6004 198.211 48.3304 200.579 47.7946C202.821 47.5862 204.943 46.6917 206.654 45.2341C208.364 43.7766 209.58 41.8274 210.133 39.6544C210.628 37.4653 210.628 35.1941 210.133 33.005C209.878 31.2489 209.103 29.6082 207.909 28.2914C206.714 26.9747 205.153 26.0413 203.424 25.6102C197.692 24.3769 191.778 24.2353 185.993 25.1927L185.903 48.1822Z" fill="black"/>
</g>
<path d="M10.8089 137.185H43.2355V180.213L48.162 180.523L47.6473 202.814H39.1178L38.5296 189.533H9.55886L8.97063 202.814H0.441178L0 180.523L4.11766 180.213C6.10297 176.485 7.72062 172.679 8.82357 168.562C10.2206 163.281 10.8089 157.611 10.8089 151.165V137.185ZM21.1766 146.815V153.805C21.1766 159.864 20.4413 165.766 18.9707 171.048C18.0883 174.232 16.8383 177.417 15.5148 179.902H31.9854V146.815H21.1766Z" fill="black"/>
<path d="M59.9342 137.185H93.3167V189.533H82.1402V146.893H70.8901V159.32C70.8901 172.756 69.2725 183.086 61.7724 187.746C59.2724 189.222 55.89 190.309 51.9194 190.309L50.5224 180.756C52.9489 180.446 54.9342 179.358 56.1842 177.96C59.1989 174.698 59.9342 168.019 59.9342 160.097V137.185Z" fill="black"/>
<path d="M110.709 189.533H98.7969C99.8264 187.824 100.635 185.805 101.297 183.63C103.282 177.65 104.459 171.514 108.209 167.708C109.312 166.543 110.782 165.689 112.326 164.99V164.757C106.812 163.669 101.885 159.631 101.885 152.019C101.885 147.126 103.944 143.398 107.032 140.913C110.856 137.806 116.885 136.796 123.209 136.796C128.65 136.796 133.871 137.262 137.474 137.884V189.533H126.371V168.951H123.65C121.444 168.951 119.679 169.65 118.356 170.97C115.194 174.154 113.944 180.834 112.473 185.106C111.959 186.659 111.591 187.902 110.709 189.533ZM126.371 160.252V146.039C125.562 145.883 124.091 145.573 121.812 145.573C116.959 145.573 113.062 147.747 113.062 153.106C113.062 157.922 117.253 160.485 122.326 160.485C123.797 160.485 125.341 160.407 126.371 160.252Z" fill="black"/>
<path d="M168.926 137.185H201.353V180.213L206.28 180.523L205.765 202.814H197.235L196.647 189.533H167.676L167.088 202.814H158.559L158.118 180.523L162.235 180.213C164.221 176.485 165.838 172.679 166.941 168.562C168.338 163.281 168.926 157.611 168.926 151.165V137.185ZM179.294 146.815V153.805C179.294 159.864 178.559 165.766 177.088 171.048C176.206 174.232 174.956 177.417 173.632 179.902H190.103V146.815H179.294Z" fill="black"/>
<path d="M242.124 157.767V167.397H223.888V179.824H244.256V189.533H212.638V137.185H243.227V146.893H223.888V157.767H242.124Z" fill="black"/>
<path d="M261.475 189.533V147.126H248.166V137.185H286.255V147.126H272.725V189.533H261.475Z" fill="black"/>
<path d="M321.685 157.767V167.397H303.45V179.824H323.817V189.533H292.2V137.185H322.788V146.893H303.45V157.767H321.685Z" fill="black"/>
<path d="M331.478 137.185H341.772V152.718C341.772 161.106 341.625 169.417 341.184 176.407H341.478C344.051 170.271 347.36 163.359 350.301 157.767L360.963 137.185H372.434V189.533H362.14V174.077C362.14 165.999 362.287 158.854 362.948 152.019H362.728C360.448 158.233 357.287 165.145 354.345 170.659L344.272 189.533H331.478V137.185ZM341.037 125.224H348.684C348.757 128.253 349.566 129.961 351.919 129.961C354.198 129.961 355.081 128.253 355.375 125.224H362.875C362.434 131.903 358.316 134.777 351.772 134.777C345.301 134.777 341.625 131.748 341.037 125.224Z" fill="black"/>
<defs>
<clipPath id="clip0_2110_3006">
<rect width="604.969" height="98.6073" fill="white" transform="translate(0 6.61621)"/>
</clipPath>
</defs>
</svg>
