<svg width="571" height="685" viewBox="0 0 571 685" fill="none" xmlns="http://www.w3.org/2000/svg">
<path d="M309.141 349.849C309.141 349.849 381.842 405.687 398.257 456.068C398.257 456.068 341.81 382.257 309.141 349.849Z" fill="#FFED00"/>
<path d="M366.471 288.368C366.471 288.368 427.237 357.005 478.647 369.857C478.647 369.857 401.079 318.697 366.471 288.368Z" fill="#FFED00"/>
<path d="M180.915 238.267C180.915 238.267 168.654 276.879 198.28 304.506C205.879 311.592 221.665 320.833 236.856 326.838L260.817 301.142" fill="#6A7281"/>
<path d="M246.217 168.238C246.217 168.238 283.88 153.313 313.506 180.94C321.106 188.026 331.425 203.13 338.475 217.864L314.513 243.56" fill="#6A7281"/>
<path d="M258.567 299.536L265.061 305.592C266.789 307.203 269.264 307.52 271.275 306.579L275.426 310.45C277.703 312.573 281.263 312.449 283.386 310.172L325.079 265.462C327.201 263.186 327.077 259.625 324.801 257.503L320.649 253.631C321.44 251.552 320.966 249.104 319.238 247.493L312.745 241.438L258.567 299.536Z" fill="#E4052D"/>
<path d="M324.079 266.55L284.441 309.057C284.441 309.057 312.191 337.843 356.262 336.304C356.262 336.304 356.212 296.529 324.072 266.558" fill="#FFA400"/>
<path d="M324.882 307.059C324.227 288.505 313.28 278.129 313.28 278.129L295.206 297.512C295.206 297.512 306.32 307.707 324.875 307.067L324.882 307.059Z" fill="#FFED00"/>
<path d="M61.8652 61.7901C61.8652 61.7901 213.548 31.8638 320.19 248.64L293.235 277.546L61.8652 61.7901Z" fill="#EEEEEE"/>
<path d="M61.8648 61.7905C61.8648 61.7905 42.5923 215.191 266.279 306.452L293.234 277.546L61.8648 61.7905Z" fill="white"/>
<path d="M61.8586 61.7831C61.8586 61.7831 55.275 114.171 94.4593 175.941C84.8799 142.544 101.475 98.7262 101.475 98.7262C101.475 98.7262 144.044 79.1141 178.021 86.3487C113.676 51.5605 61.8586 61.7831 61.8586 61.7831Z" fill="#6A7281"/>
<path d="M155.657 149.252C135.498 170.87 136.689 204.742 158.307 224.901C179.925 245.06 213.79 243.878 233.949 222.26C254.108 200.642 252.925 166.777 231.307 146.618C209.689 126.459 175.816 127.634 155.657 149.252Z" fill="#E4052D"/>
<path d="M164.749 157.731C149.263 174.337 150.179 200.345 166.777 215.823C183.376 231.301 209.391 230.393 224.869 213.794C240.348 197.196 239.439 171.18 222.841 155.702C206.242 140.224 180.227 141.132 164.749 157.731Z" fill="#FFA400"/>
<path d="M173.821 166.19C163.016 177.777 163.658 195.936 175.245 206.741C186.832 217.546 204.983 216.912 215.788 205.325C226.593 193.738 225.959 175.587 214.372 164.782C202.785 153.977 184.626 154.603 173.821 166.19Z" fill="#FFED00"/>
<path d="M182.908 174.666C176.777 181.241 177.128 191.535 183.704 197.667C190.279 203.799 200.573 203.431 206.705 196.856C212.836 190.28 212.469 179.987 205.902 173.863C199.334 167.739 189.032 168.098 182.908 174.666Z" fill="white"/>
<path d="M587.133 462.899L597.027 684.855C539.366 591.398 364.861 376.563 335.7 345.696C338.337 346.119 341.034 346.46 343.823 346.688L484.647 493.333L494.704 482.549L358.187 346.946L366.993 346.647L366.982 337.466L511.801 464.214L521.857 453.43L365.632 323.087C365.221 320.622 364.666 317.9 363.946 314.962C396.674 341.808 514.822 431.42 593.383 476.081" fill="#FFED00"/>
<path d="M365.631 323.087L521.857 453.43L511.8 464.214L366.973 337.458L366.979 336.285C366.982 335.691 366.934 330.686 365.639 323.079" fill="white"/>
<path d="M358.179 346.957L494.696 482.559L484.64 493.344L343.816 346.698C347.939 347.053 352.221 347.173 356.644 347.011L358.179 346.957Z" fill="white"/>
</svg>
