<svg width="365" height="90" viewBox="0 0 365 90" fill="none" xmlns="http://www.w3.org/2000/svg">
<rect width="359.873" height="65.1522" rx="32.5761" transform="matrix(0.997727 -0.0673812 0.0777858 0.99697 0 24.2487)" fill="#F2A83B"/>
<g clip-path="url(#clip0_606_1554)">
<path d="M274.617 24.9166C272.885 25.0423 271.463 26.474 271.587 28.1831C271.709 29.8724 273.284 31.1089 275.057 30.9802C276.831 30.8515 278.212 29.3785 278.091 27.7112C277.967 26.0021 276.376 24.789 274.617 24.9166ZM274.645 25.4057C276.146 25.2968 277.468 26.3334 277.57 27.7455C277.67 29.1297 276.529 30.387 275.014 30.4969C273.52 30.6054 272.211 29.5584 272.108 28.1418C272.004 26.7088 273.167 25.5129 274.645 25.4057ZM273.736 29.7335L274.449 29.6818L274.35 28.3208L274.982 28.275C275.241 28.2562 275.313 28.3489 275.385 28.5373C275.388 28.5826 275.567 29.4467 275.602 29.5981L276.37 29.5424C276.254 29.3969 276.176 28.9302 276.122 28.66C276.021 28.2346 275.961 27.9345 275.457 27.9361C275.713 27.8382 276.135 27.6735 276.09 27.0527C276.024 26.1512 275.185 26.2121 274.754 26.2434L273.493 26.3349L273.736 29.7335ZM274.222 26.8325L274.811 26.7898C274.999 26.7761 275.341 26.7513 275.375 27.2154C275.388 27.3929 275.328 27.7005 274.862 27.7343L274.285 27.7762L274.222 26.8325Z" fill="white"/>
<path d="M201.749 55.6412C195.91 56.0649 192.437 52.7818 192.415 46.7168C192.393 40.36 197.217 36.5602 202.93 36.1456C204.629 36.0073 206.337 36.2416 207.937 36.8323L207.947 39.6514C206.557 38.7582 204.92 38.332 203.273 38.4342C199.435 38.7127 197.362 42.0201 197.377 46.1479C197.391 50.3154 199.488 53.2818 203.576 52.9851C205.241 52.8644 206.703 52.5062 208.325 51.8799L208.331 53.7764C206.294 54.8607 204.05 55.4965 201.749 55.6412Z" fill="white"/>
<path d="M263.661 51.5558C257.825 51.9793 254.351 48.6904 254.328 42.6278C254.303 36.27 259.13 32.4688 264.842 32.0544C266.54 31.9163 268.248 32.1506 269.848 32.7411L269.857 35.5627C268.468 34.6659 266.831 34.2386 265.184 34.343C261.348 34.6214 259.274 37.9301 259.29 42.0566C259.304 46.2252 261.403 49.1938 265.486 48.8975C267.154 48.7765 268.613 48.4128 270.237 47.791L270.243 49.6852C268.207 50.7726 265.963 51.4103 263.661 51.5558Z" fill="white"/>
<path d="M102.531 62.7638C94.8958 63.3178 88.064 59.5238 88.0245 50.05C88 41.856 94.0638 35.178 104.1 34.4497C106.028 34.3099 108.217 34.5011 110.235 34.9589C110.237 35.2178 110.247 37.8584 110.248 38.3343C108.484 37.4706 106.209 37.0711 104.108 37.2235C96.0046 37.8115 93.4129 44.8011 93.4279 49.2157C93.4575 57.0966 98.1436 60.2671 102.99 59.9154C106.163 59.6852 109.205 58.7703 111.474 57.3457C111.487 60.6405 111.488 60.8551 111.488 60.8551C109.001 61.8184 106.219 62.4962 102.531 62.7638Z" fill="white"/>
<path d="M141.285 59.9306C139.075 60.091 137.403 59.4563 136.314 58.0186L136.349 67.6153L131.804 67.9451L131.726 45.383C131.721 43.8236 131.716 42.6398 130.501 41.7211L136.051 41.3184L136.266 43.7866C137.426 41.725 139.509 40.6055 142.133 40.4151C147.179 40.049 149.696 44.4105 149.714 49.0058C149.729 54.6454 147.12 59.5072 141.285 59.9306ZM140.431 43.2312C138.178 43.3947 136.267 45.6415 136.28 49.1814L136.288 52.2491C136.303 56.0396 137.895 57.988 140.522 57.7973C144.398 57.5161 144.761 52.9398 144.749 49.9528C144.74 47.0031 144.183 42.9591 140.431 43.2312Z" fill="white"/>
<path d="M170.573 48.2226L157.481 49.1725C157.496 53.3399 160.385 56.0784 164.555 55.7759C166.224 55.6548 168.016 55.358 169.639 54.7327L169.646 56.6303C167.48 57.7558 165.103 58.2643 162.728 58.4367C156.768 58.8691 152.586 55.6364 152.562 49.443C152.542 43.764 156.696 39.4597 162.283 39.0544C167.699 38.6613 170.595 42.2406 170.612 47.4567C170.615 47.7167 170.577 47.9691 170.573 48.2226ZM162.082 41.2996C160.581 41.4086 159.419 42.2488 158.635 43.3989C157.89 44.5088 157.561 46.0505 157.517 47.1889L165.94 46.5777C165.93 44.0538 165.168 41.0757 162.082 41.2996Z" fill="white"/>
<path d="M128.112 41.3927L112.231 42.5451L112.241 45.475L117.844 45.0685L117.905 61.5468L122.517 61.2122L122.457 44.7338L128.124 44.3226L128.112 41.3927Z" fill="white"/>
<path d="M185.272 40.2182L185.332 56.4493L189.498 56.147L189.43 37.3464L173.532 38.4999L173.601 57.3005L177.591 57.0109L177.954 56.9846L177.894 40.7664L185.272 40.2182Z" fill="white"/>
<path d="M246.638 35.7664L246.696 51.9976L250.862 51.6953L250.794 32.8959L234.899 34.0492L234.95 48.2042C234.948 48.6603 234.798 49.1033 234.523 49.466C233.915 50.0491 232.8 50.6411 232.8 50.6411L232.778 53.543C232.778 53.543 235.519 53.5587 237.269 52.7073C239.018 51.8558 239.299 48.4253 239.299 48.4253L239.256 36.3172L246.638 35.7664Z" fill="white"/>
<path d="M215.785 54.9373L224.57 40.4084L224.623 54.2961L226.63 54.1504L226.632 54.1304L228.474 53.9969L228.402 34.528L226.561 34.6616L226.56 34.6465L224.655 34.7847L215.712 49.5771L215.66 35.4373L213.626 35.5849L213.626 35.5978L211.688 35.7384L211.761 55.2293L215.785 54.9373Z" fill="white"/>
</g>
<defs>
<clipPath id="clip0_606_1554">
<rect width="194.785" height="53.0365" fill="white" transform="matrix(0.99773 -0.0673503 0.0777548 0.996972 82.8281 24.7233)"/>
</clipPath>
</defs>
</svg>
