<svg width="170" height="35" viewBox="0 0 170 35" fill="none" xmlns="http://www.w3.org/2000/svg">
<rect width="170" height="35" rx="17.5" fill="#F2A83B"/>
<g clip-path="url(#clip0_2120_285)">
<rect width="35" height="35" rx="17.5" fill="#F2A83B"/>
<path d="M23.5919 31.5717C25.4802 30.8298 27.2081 29.734 28.677 28.347C30.1459 26.9599 31.3269 25.3087 32.1528 23.4877C32.9786 21.6667 33.4331 19.7115 33.4902 17.7337C33.5472 15.7559 33.2059 13.7944 32.4855 11.961C31.7651 10.1276 30.6799 8.45832 29.2917 7.04842C27.9036 5.63852 26.2397 4.51563 24.3951 3.74385C22.5505 2.97208 20.5613 2.56655 18.5411 2.5504C16.5209 2.53426 14.5092 2.90781 12.6209 3.64975L12.5519 10.4493L18.1064 17.6107L23.5919 31.5717Z" fill="#5C5C5C"/>
<path d="M23.584 31.9364C21.6297 32.7043 19.5452 33.0848 17.4497 33.0561C15.3541 33.0274 13.2885 32.5902 11.3708 31.7694C9.45303 30.9486 7.72071 29.7603 6.27273 28.2723C4.82474 26.7843 3.68945 25.0257 2.93167 23.0971C2.1739 21.1684 1.80847 19.1074 1.85627 17.0317C1.90406 14.956 2.36413 12.9062 3.21022 10.9995C4.05631 9.09277 5.27184 7.36638 6.78741 5.91891C8.80501 1.99289 14.8041 1.6304 16.7584 0.862541L12.9899 10.0281L17.8136 17.2499L23.6216 23.6146L23.584 31.9364Z" fill="#F2A83B"/>
<path d="M26.2552 5.17964L25.7161 6.31055C23.3236 4.24518 17.3966 2.32064 14.3241 5.77035C10.5769 9.97759 16.1068 13.331 20.1609 15.6767C23.6438 17.6918 27.158 20.9552 26.9945 25.7288C26.6914 34.5809 11.7407 34.6909 7 29.595L7.54836 28.4781C11.4292 32.2155 21.2155 31.7429 21.9326 27.1035C22.4353 23.8516 19.4922 21.6215 16.4067 19.8006C10.1917 16.1328 4.16903 9.97413 10.5428 4.24603C15.4219 -0.138905 23.2104 2.84942 26.2552 5.17964Z" fill="white"/>
</g>
<g clip-path="url(#clip1_2120_285)">
<path d="M152.999 9.5C151.934 9.5 151 10.1538 151 10.9994C151 11.8352 151.908 12.5 152.999 12.5C154.09 12.5 155 11.8243 155 10.9994C155 10.1538 154.08 9.5 152.999 9.5ZM152.994 9.74168C153.917 9.74168 154.68 10.2991 154.68 10.9977C154.68 11.6825 153.926 12.2606 152.994 12.2606C152.075 12.2606 151.321 11.6986 151.321 10.9977C151.321 10.2887 152.085 9.74168 152.994 9.74168ZM152.246 11.8393H152.684V11.1659H153.073C153.233 11.1659 153.272 11.2141 153.308 11.3094C153.308 11.3318 153.379 11.7635 153.394 11.8393H153.866C153.801 11.7635 153.774 11.531 153.753 11.3961C153.71 11.1831 153.687 11.0333 153.379 11.0161C153.539 10.977 153.805 10.911 153.805 10.6039C153.805 10.1579 153.289 10.1579 153.024 10.1579H152.248L152.246 11.8393ZM152.672 10.4288H153.034C153.15 10.4288 153.36 10.4288 153.36 10.6584C153.36 10.7463 153.31 10.8955 153.024 10.8955H152.669L152.672 10.4288Z" fill="white"/>
<path d="M109.823 23.4996C106.578 23.4996 104.789 21.4963 105.02 18.0584C105.263 14.4552 108.083 12.5003 111.259 12.5003C112.204 12.4917 113.139 12.6948 114 13.0953L113.893 14.6932C113.16 14.1299 112.271 13.8211 111.357 13.8113C109.223 13.8113 107.944 15.6003 107.787 17.9401C107.627 20.3023 108.668 22.0695 110.941 22.0695C111.866 22.0695 112.689 21.9267 113.611 21.6385L113.538 22.7135C112.368 23.2442 111.102 23.5122 109.823 23.4996Z" fill="white"/>
<path d="M145.823 23.4996C142.578 23.4996 140.789 21.4937 141.02 18.0581C141.261 14.4553 144.083 12.5003 147.259 12.5003C148.204 12.4919 149.139 12.6948 150 13.0951L149.891 14.6939C149.16 14.1288 148.271 13.8194 147.356 13.8109C145.223 13.8109 143.943 15.6001 143.787 17.9385C143.628 20.3007 144.669 22.0687 146.939 22.0687C147.866 22.0687 148.688 21.9226 149.611 21.6371L149.538 22.7104C148.369 23.2427 147.102 23.5118 145.823 23.4996Z" fill="white"/>
<path d="M52.5876 23.5C48.3142 23.5 44.6639 21.0661 45.0246 15.6893C45.342 11.0393 48.9878 7.5 54.6051 7.5C55.6839 7.5 56.8946 7.69858 58 8.04145C57.9903 8.1884 57.8895 9.687 57.8707 9.95706C56.9237 9.39443 55.6729 9.07405 54.4971 9.07405C49.9619 9.07405 48.2366 12.9331 48.0666 15.4384C47.7648 19.9111 50.2457 21.9028 52.958 21.9028C54.7337 21.9028 56.4648 21.5089 57.7854 20.7941C57.6593 22.664 57.6516 22.7858 57.6516 22.7858C56.2275 23.2299 54.6516 23.5 52.5876 23.5Z" fill="white"/>
<path d="M74.7313 23.3963C73.4656 23.3963 72.5398 22.9729 71.979 22.1234L71.6021 27.5H69L69.8881 14.8596C69.9496 13.986 69.9959 13.3227 69.3419 12.7588H72.5193L72.5398 14.15C73.2857 13.0424 74.5183 12.5 76.0208 12.5C78.9099 12.5 80.163 15.0452 79.9831 17.6198C79.7589 20.7792 78.072 23.3963 74.7313 23.3963ZM74.9349 14.0082C73.6448 14.0082 72.4638 15.189 72.3249 17.1722L72.2026 18.8908C72.0544 21.0145 72.8804 22.1704 74.3848 22.1704C76.604 22.1704 76.9994 19.622 77.1165 17.9485C77.2329 16.2959 77.0828 14.0082 74.9349 14.0082Z" fill="white"/>
<path d="M91.93 18.0354H84.7218C84.5647 20.3972 86.0381 22.0676 88.3338 22.0676C89.2527 22.0676 90.246 21.973 91.1599 21.6855L91.0886 22.761C89.8575 23.3096 88.5354 23.5 87.2273 23.5C83.946 23.5 81.7838 21.4965 82.0172 17.9864C82.2315 14.768 84.6779 12.5 87.7539 12.5C90.7363 12.5 92.1799 14.647 91.9821 17.6031C91.9732 17.7505 91.9427 17.8919 91.93 18.0354ZM87.5548 13.7639C86.7281 13.7639 86.0585 14.1922 85.5835 14.8116C85.1313 15.4098 84.8897 16.2698 84.8203 16.913H89.4581C89.5529 15.4825 89.254 13.7639 87.5548 13.7639Z" fill="white"/>
<path d="M68 12.5H59.1131L59 14.1606H62.1353L61.5038 23.5H64.0846L64.7167 14.1606H67.8882L68 12.5Z" fill="white"/>
<path d="M101.473 14.0034L100.826 23.5H103.25L104 12.5H94.75L94 23.5H96.3219H96.5329L97.1794 14.0109L101.473 14.0034Z" fill="white"/>
<path d="M136.54 13.9589L135.909 23.179H138.27L139 12.5H129.993L129.442 20.5407C129.423 20.7997 129.32 21.0451 129.151 21.2397C128.784 21.5458 128.131 21.836 128.131 21.836L128 23.4831C128 23.4831 129.545 23.605 130.566 23.1936C131.587 22.7821 131.885 20.8455 131.885 20.8455L132.356 13.9676L136.54 13.9589Z" fill="white"/>
<path d="M118.23 23.5L123.653 15.6674L123.127 23.5H124.239L124.241 23.4888H125.261L126 12.5086H124.98V12.5H123.925L118.404 20.4747L118.941 12.5H117.814L117.813 12.5072H116.739L116 23.5H118.23Z" fill="white"/>
</g>
<defs>
<clipPath id="clip0_2120_285">
<rect width="35" height="35" rx="17.5" fill="white"/>
</clipPath>
<clipPath id="clip1_2120_285">
<rect width="110" height="20" fill="white" transform="translate(45 7.5)"/>
</clipPath>
</defs>
</svg>
